<svg width="211" height="87" viewBox="0 0 211 87" fill="none" xmlns="http://www.w3.org/2000/svg">
<g id="Pfizer svg" clip-path="url(#clip0_38_626)">
<g id="Group">
<g id="Group_2">
<path id="Vector" d="M180.963 63.1917C177.634 63.2396 175.862 61.1214 175.862 57.3637C175.862 57.1124 175.874 56.8731 175.886 56.6337H188.963C189.227 55.6404 189.394 54.5634 189.394 53.5701C189.394 48.9867 186.58 45.4923 180.832 45.4923C174.952 45.4923 169.73 51.2844 169.73 57.3637C169.73 63.1917 173.539 66.734 179.886 66.734C182.7 66.734 185.466 65.7886 187.406 64.3166L186.197 61.2889C184.676 62.4497 182.82 63.1438 180.963 63.1917ZM180.916 48.7593C182.856 48.7593 183.85 50.0159 183.85 52.7803C183.85 53.0436 183.838 53.3188 183.802 53.606H176.341C177.167 50.698 178.892 48.7593 180.916 48.7593Z" fill="black"/>
<path id="Vector_2" d="M129.193 44.1879C129.193 39.4369 125.48 35.9784 119.852 35.9784H108.966L100.751 66.2074H107.625L110.654 55.066H116.618C123.444 55.066 129.193 50.6621 129.193 44.1879ZM113.972 51.5237H111.613L114.87 39.5207H117.349C120.474 39.5207 122.235 41.6389 122.235 44.4392C122.235 48.9388 118.702 51.5237 113.972 51.5237Z" fill="black"/>
<path id="Vector_3" d="M138.139 46.0428L138.905 43.2305C139.288 41.7586 139.947 39.2574 140.845 36.3614C141.791 33.3816 143.528 31.5267 145.863 31.5267C146.989 31.5267 147.683 32.0412 147.683 32.9029C147.635 33.8483 146.857 34.4107 146.857 35.9306C146.857 37.7017 148.366 39.0779 150.318 39.0779C152.737 39.0779 154.677 37.1392 154.677 34.7578C154.677 31.0839 151.527 28.6665 146.725 28.6665C139.683 28.6665 135.061 33.1542 132.163 43.6494L120.415 86.384H127.073L137.228 49.3697H144.15L139.6 66.2074H146.258L151.707 46.0428H138.139Z" fill="black"/>
<path id="Vector_4" d="M171.85 46.0427H154.21L153.348 49.3696H161.886L148.641 66.2074H167.311L168.173 62.8805H158.569L171.85 46.0427Z" fill="black"/>
<path id="Vector_5" d="M206.771 45.6958C204.388 45.6958 201.849 47.2396 199.861 50.4348L201.023 46.0428H194.364L188.915 66.2075H195.574L198.041 57.1364C199.035 53.4266 201.454 49.7886 203.059 49.7886C204.783 49.7886 204.136 53.0317 207.118 53.0317C209.274 53.0317 210.579 51.0451 210.579 49.2261C210.567 47.1199 208.879 45.6958 206.771 45.6958Z" fill="black"/>
<path id="Vector_6" d="M38.6689 47.0839C43.7585 45.205 52.4289 44.7263 63.9255 46.0427L67.3146 33.2379C54.2133 31.4428 40.4532 32.7712 37.2438 37.3785C35.8306 39.4488 35.4594 43.7809 38.6689 47.0839ZM89.1821 45.0135C84.0925 46.8924 75.4221 47.3711 63.9255 46.0547L60.5364 58.8595C73.6378 60.6546 87.3978 59.3262 90.6072 54.7189C92.0204 52.6366 92.3916 48.3045 89.1821 45.0135ZM93.7089 49.5252L95.7807 41.8063C96.5352 39.0778 96.9064 37.6657 96.9064 36.5288C96.9064 26.644 70.9792 14.5811 46.2854 13.0732L42.8005 25.8781C68.2487 27.6732 94.2718 40.0113 93.6012 49.5252H93.7089ZM34.1421 42.5603L32.0703 50.2791C31.3158 53.0076 30.9446 54.4197 30.9446 55.5566C30.9446 65.4414 56.8719 77.5043 81.5656 79.0122L85.0505 66.2073C59.5903 64.4123 33.5792 52.0742 34.2379 42.5603H34.1421Z" fill="black"/>
</g>
</g>
</g>
<defs>
<clipPath id="clip0_38_626">
<rect width="210.986" height="87" fill="white"/>
</clipPath>
</defs>
</svg>
